<svg width="288" height="300" viewBox="0 0 288 300" fill="none" xmlns="http://www.w3.org/2000/svg">
<path d="M154 54H216V245H154V54Z" fill="#009DFF"/>
<path d="M226 148.017H237.628C265.242 148.017 287.628 170.402 287.628 198.017V247.518C287.628 275.132 265.242 297.518 237.628 297.518H226V148.017Z" fill="#009DFF"/>
<path d="M62 0H99C112.807 0 124 11.1929 124 25V250C124 277.614 101.614 300 74 300H62V0Z" fill="#FF8C00"/>
<path d="M0 244H62V300H50C22.3858 300 0 277.614 0 250V244Z" fill="#FF8C00"/>
<path d="M154 242H216V298H204C176.386 298 154 275.614 154 248V242Z" fill="#009DFF"/>
<path d="M1 0H62.6279V55.814H51C23.3858 55.814 1 33.4282 1 5.81396V0Z" fill="#FF8C00"/>
<path d="M61.9981 245.302L2.38407e-06 244.812L0.600852 189L12.6005 189.095C40.2138 189.313 62.3579 211.875 62.0607 239.487L61.9981 245.302Z" fill="#FF8C00"/>
<path d="M215.625 56.299L154 55.8116L154.601 9.22731e-06L166.228 0.0919715C193.841 0.310379 215.985 22.8719 215.688 50.4845L215.625 56.299Z" fill="#009DFF"/>
</svg>
